# xmcd CD database file
#
# Track frame offsets:
#	150
#	6665
#	15907
#	40327
#	55610
#	74530
#	94865
#	100960
#	123450
#	141022
#	158887
#	171307
#	177557
#	193697
#	212530
#
# Disc length: 3102 seconds
#
# Revision: 0
# Processed by: cddbd v1.5.1PL0 Copyright (c) Steve Scherf et al.
# Submitted via: CDex 1.51
#
DISCID=d30c1c0f
DTITLE=MELLOW YELLOW - 地球ウォーカー
DYEAR=2005
DGENRE=Hip-Hop
TTITLE0=Jingle Jam #9
TTITLE1=CHECK 1,2
TTITLE2=SEX, 酒, マネー
TTITLE3=アマゾン
TTITLE4=BAD Combination
TTITLE5=アースシェイカー
TTITLE6=Jingle Jam #10
TTITLE7=Summer in the City feat.椎名純平
TTITLE8=ロードランナー
TTITLE9=4 the Fabulous featYOUKID, WISE
TTITLE10=嘘千八百
TTITLE11=Jingle Jam #11
TTITLE12=BARニュー来夢来人
TTITLE13=ホームシック
TTITLE14=地球ウォーカー
EXTD=YEAR: 2005
EXTT0=
EXTT1=
EXTT2=
EXTT3=
EXTT4=
EXTT5=
EXTT6=
EXTT7=
EXTT8=
EXTT9=
EXTT10=
EXTT11=
EXTT12=
EXTT13=
EXTT14=
PLAYORDER=
